<mxfile host="app.diagrams.net" agent="Mozilla/5.0 (Windows NT 10.0; Win64; x64) AppleWebKit/537.36 (KHTML, like Gecko) Chrome/133.0.0.0 Safari/537.36" version="26.0.16">
  <diagram id="C5RBs43oDa-KdzZeNtuy" name="Page-1">
    <mxGraphModel dx="2100" dy="1044" grid="1" gridSize="10" guides="1" tooltips="1" connect="1" arrows="1" fold="1" page="1" pageScale="1" pageWidth="827" pageHeight="1169" math="0" shadow="0">
      <root>
        <mxCell id="WIyWlLk6GJQsqaUBKTNV-0" />
        <mxCell id="WIyWlLk6GJQsqaUBKTNV-1" parent="WIyWlLk6GJQsqaUBKTNV-0" />
        <mxCell id="z8Pj-q4XJrA8Nr9fmpkC-0" value="" style="shape=folder;fontStyle=1;spacingTop=10;tabWidth=190;tabHeight=40;tabPosition=left;html=1;whiteSpace=wrap;labelPosition=center;verticalLabelPosition=middle;align=center;verticalAlign=middle;horizontal=1;" vertex="1" parent="WIyWlLk6GJQsqaUBKTNV-1">
          <mxGeometry x="50" y="50" width="510" height="530" as="geometry" />
        </mxCell>
        <mxCell id="z8Pj-q4XJrA8Nr9fmpkC-2" value="&amp;lt;&amp;lt;import&amp;gt;&amp;gt;" style="html=1;verticalAlign=bottom;endArrow=open;dashed=1;endSize=8;curved=0;rounded=0;exitX=0.5;exitY=1;exitDx=0;exitDy=0;exitPerimeter=0;entryX=0;entryY=0;entryDx=42.5;entryDy=0;entryPerimeter=0;" edge="1" parent="WIyWlLk6GJQsqaUBKTNV-1" source="z8Pj-q4XJrA8Nr9fmpkC-9" target="z8Pj-q4XJrA8Nr9fmpkC-18">
          <mxGeometry relative="1" as="geometry">
            <mxPoint x="320" y="480" as="sourcePoint" />
            <mxPoint x="178" y="340" as="targetPoint" />
            <mxPoint as="offset" />
          </mxGeometry>
        </mxCell>
        <mxCell id="z8Pj-q4XJrA8Nr9fmpkC-9" value="" style="shape=folder;fontStyle=1;spacingTop=10;tabWidth=85;tabHeight=30;tabPosition=left;html=1;whiteSpace=wrap;" vertex="1" parent="WIyWlLk6GJQsqaUBKTNV-1">
          <mxGeometry x="70" y="120" width="165" height="100" as="geometry" />
        </mxCell>
        <mxCell id="z8Pj-q4XJrA8Nr9fmpkC-12" value="main" style="text;align=center;fontStyle=1;verticalAlign=middle;spacingLeft=3;spacingRight=3;strokeColor=none;rotatable=0;points=[[0,0.5],[1,0.5]];portConstraint=eastwest;html=1;" vertex="1" parent="WIyWlLk6GJQsqaUBKTNV-1">
          <mxGeometry x="95" y="60" width="80" height="26" as="geometry" />
        </mxCell>
        <mxCell id="z8Pj-q4XJrA8Nr9fmpkC-14" value="ui" style="text;align=center;fontStyle=1;verticalAlign=middle;spacingLeft=3;spacingRight=3;strokeColor=none;rotatable=0;points=[[0,0.5],[1,0.5]];portConstraint=eastwest;html=1;" vertex="1" parent="WIyWlLk6GJQsqaUBKTNV-1">
          <mxGeometry x="70" y="120" width="80" height="26" as="geometry" />
        </mxCell>
        <mxCell id="z8Pj-q4XJrA8Nr9fmpkC-16" value="SimulationSpeed" style="html=1;whiteSpace=wrap;" vertex="1" parent="WIyWlLk6GJQsqaUBKTNV-1">
          <mxGeometry x="85" y="160" width="100" height="20" as="geometry" />
        </mxCell>
        <mxCell id="z8Pj-q4XJrA8Nr9fmpkC-17" value="InitialPositions" style="html=1;whiteSpace=wrap;" vertex="1" parent="WIyWlLk6GJQsqaUBKTNV-1">
          <mxGeometry x="120" y="190" width="100" height="20" as="geometry" />
        </mxCell>
        <mxCell id="z8Pj-q4XJrA8Nr9fmpkC-18" value="" style="shape=folder;fontStyle=1;spacingTop=10;tabWidth=85;tabHeight=30;tabPosition=left;html=1;whiteSpace=wrap;" vertex="1" parent="WIyWlLk6GJQsqaUBKTNV-1">
          <mxGeometry x="110" y="280" width="165" height="100" as="geometry" />
        </mxCell>
        <mxCell id="z8Pj-q4XJrA8Nr9fmpkC-19" value="environment" style="text;align=center;fontStyle=1;verticalAlign=middle;spacingLeft=3;spacingRight=3;strokeColor=none;rotatable=0;points=[[0,0.5],[1,0.5]];portConstraint=eastwest;html=1;" vertex="1" parent="WIyWlLk6GJQsqaUBKTNV-1">
          <mxGeometry x="112.5" y="280" width="80" height="26" as="geometry" />
        </mxCell>
        <mxCell id="z8Pj-q4XJrA8Nr9fmpkC-20" value="" style="shape=folder;fontStyle=1;spacingTop=10;tabWidth=85;tabHeight=30;tabPosition=left;html=1;whiteSpace=wrap;" vertex="1" parent="WIyWlLk6GJQsqaUBKTNV-1">
          <mxGeometry x="380" y="280" width="165" height="100" as="geometry" />
        </mxCell>
        <mxCell id="z8Pj-q4XJrA8Nr9fmpkC-21" value="&amp;lt;&amp;lt;import&amp;gt;&amp;gt;" style="html=1;verticalAlign=bottom;endArrow=open;dashed=1;endSize=8;curved=0;rounded=0;exitX=0;exitY=0;exitDx=165;exitDy=65;exitPerimeter=0;entryX=0;entryY=0;entryDx=0;entryDy=65;entryPerimeter=0;" edge="1" parent="WIyWlLk6GJQsqaUBKTNV-1" source="z8Pj-q4XJrA8Nr9fmpkC-18" target="z8Pj-q4XJrA8Nr9fmpkC-20">
          <mxGeometry relative="1" as="geometry">
            <mxPoint x="163" y="230" as="sourcePoint" />
            <mxPoint x="163" y="290" as="targetPoint" />
            <mxPoint as="offset" />
          </mxGeometry>
        </mxCell>
        <mxCell id="z8Pj-q4XJrA8Nr9fmpkC-22" value="algorithms" style="text;align=center;fontStyle=1;verticalAlign=middle;spacingLeft=3;spacingRight=3;strokeColor=none;rotatable=0;points=[[0,0.5],[1,0.5]];portConstraint=eastwest;html=1;" vertex="1" parent="WIyWlLk6GJQsqaUBKTNV-1">
          <mxGeometry x="380" y="280" width="80" height="26" as="geometry" />
        </mxCell>
        <mxCell id="z8Pj-q4XJrA8Nr9fmpkC-23" value="" style="shape=folder;fontStyle=1;spacingTop=10;tabWidth=85;tabHeight=30;tabPosition=left;html=1;whiteSpace=wrap;" vertex="1" parent="WIyWlLk6GJQsqaUBKTNV-1">
          <mxGeometry x="110" y="440" width="230" height="120" as="geometry" />
        </mxCell>
        <mxCell id="z8Pj-q4XJrA8Nr9fmpkC-24" value="entities" style="text;align=center;fontStyle=1;verticalAlign=middle;spacingLeft=3;spacingRight=3;strokeColor=none;rotatable=0;points=[[0,0.5],[1,0.5]];portConstraint=eastwest;html=1;" vertex="1" parent="WIyWlLk6GJQsqaUBKTNV-1">
          <mxGeometry x="112.5" y="440" width="80" height="26" as="geometry" />
        </mxCell>
        <mxCell id="z8Pj-q4XJrA8Nr9fmpkC-25" value="&amp;lt;&amp;lt;import&amp;gt;&amp;gt;" style="html=1;verticalAlign=bottom;endArrow=open;dashed=1;endSize=8;curved=0;rounded=0;exitX=0.25;exitY=1;exitDx=0;exitDy=0;exitPerimeter=0;entryX=0;entryY=0;entryDx=42.5;entryDy=0;entryPerimeter=0;" edge="1" parent="WIyWlLk6GJQsqaUBKTNV-1" source="z8Pj-q4XJrA8Nr9fmpkC-18" target="z8Pj-q4XJrA8Nr9fmpkC-23">
          <mxGeometry relative="1" as="geometry">
            <mxPoint x="285" y="355" as="sourcePoint" />
            <mxPoint x="152" y="460" as="targetPoint" />
            <mxPoint as="offset" />
          </mxGeometry>
        </mxCell>
        <mxCell id="z8Pj-q4XJrA8Nr9fmpkC-26" value="villagers" style="shape=folder;fontStyle=1;spacingTop=10;tabWidth=40;tabHeight=14;tabPosition=left;html=1;whiteSpace=wrap;" vertex="1" parent="WIyWlLk6GJQsqaUBKTNV-1">
          <mxGeometry x="135" y="490" width="70" height="50" as="geometry" />
        </mxCell>
        <mxCell id="z8Pj-q4XJrA8Nr9fmpkC-27" value="monsters" style="shape=folder;fontStyle=1;spacingTop=10;tabWidth=40;tabHeight=14;tabPosition=left;html=1;whiteSpace=wrap;" vertex="1" parent="WIyWlLk6GJQsqaUBKTNV-1">
          <mxGeometry x="230" y="490" width="70" height="50" as="geometry" />
        </mxCell>
        <mxCell id="z8Pj-q4XJrA8Nr9fmpkC-28" value="" style="shape=folder;fontStyle=1;spacingTop=10;tabWidth=85;tabHeight=30;tabPosition=left;html=1;whiteSpace=wrap;" vertex="1" parent="WIyWlLk6GJQsqaUBKTNV-1">
          <mxGeometry x="380" y="430" width="165" height="100" as="geometry" />
        </mxCell>
        <mxCell id="z8Pj-q4XJrA8Nr9fmpkC-29" value="&amp;lt;&amp;lt;import&amp;gt;&amp;gt;" style="html=1;verticalAlign=bottom;endArrow=open;dashed=1;endSize=8;curved=0;rounded=0;exitX=0;exitY=0;exitDx=165;exitDy=100;exitPerimeter=0;entryX=0;entryY=0;entryDx=0;entryDy=0;entryPerimeter=0;" edge="1" parent="WIyWlLk6GJQsqaUBKTNV-1" source="z8Pj-q4XJrA8Nr9fmpkC-18" target="z8Pj-q4XJrA8Nr9fmpkC-28">
          <mxGeometry relative="1" as="geometry">
            <mxPoint x="285" y="355" as="sourcePoint" />
            <mxPoint x="390" y="355" as="targetPoint" />
            <mxPoint as="offset" />
          </mxGeometry>
        </mxCell>
        <mxCell id="z8Pj-q4XJrA8Nr9fmpkC-30" value="objects" style="text;align=center;fontStyle=1;verticalAlign=middle;spacingLeft=3;spacingRight=3;strokeColor=none;rotatable=0;points=[[0,0.5],[1,0.5]];portConstraint=eastwest;html=1;" vertex="1" parent="WIyWlLk6GJQsqaUBKTNV-1">
          <mxGeometry x="380" y="430" width="80" height="26" as="geometry" />
        </mxCell>
        <mxCell id="z8Pj-q4XJrA8Nr9fmpkC-31" value="Map" style="html=1;whiteSpace=wrap;" vertex="1" parent="WIyWlLk6GJQsqaUBKTNV-1">
          <mxGeometry x="130" y="320" width="37.5" height="20" as="geometry" />
        </mxCell>
        <mxCell id="z8Pj-q4XJrA8Nr9fmpkC-32" value="Weather" style="html=1;whiteSpace=wrap;" vertex="1" parent="WIyWlLk6GJQsqaUBKTNV-1">
          <mxGeometry x="182.5" y="320" width="57.5" height="20" as="geometry" />
        </mxCell>
        <mxCell id="z8Pj-q4XJrA8Nr9fmpkC-33" value="DayNightCycle" style="html=1;whiteSpace=wrap;" vertex="1" parent="WIyWlLk6GJQsqaUBKTNV-1">
          <mxGeometry x="137.5" y="350" width="92.5" height="20" as="geometry" />
        </mxCell>
        <mxCell id="z8Pj-q4XJrA8Nr9fmpkC-34" value="PathFinding" style="html=1;whiteSpace=wrap;" vertex="1" parent="WIyWlLk6GJQsqaUBKTNV-1">
          <mxGeometry x="400" y="320" width="80" height="20" as="geometry" />
        </mxCell>
        <mxCell id="z8Pj-q4XJrA8Nr9fmpkC-35" value="Node" style="html=1;whiteSpace=wrap;" vertex="1" parent="WIyWlLk6GJQsqaUBKTNV-1">
          <mxGeometry x="490" y="320" width="37.5" height="20" as="geometry" />
        </mxCell>
        <mxCell id="z8Pj-q4XJrA8Nr9fmpkC-36" value="ProbabilityGenerator" style="html=1;whiteSpace=wrap;" vertex="1" parent="WIyWlLk6GJQsqaUBKTNV-1">
          <mxGeometry x="402.5" y="350" width="120" height="20" as="geometry" />
        </mxCell>
        <mxCell id="z8Pj-q4XJrA8Nr9fmpkC-37" value="Bed" style="html=1;whiteSpace=wrap;" vertex="1" parent="WIyWlLk6GJQsqaUBKTNV-1">
          <mxGeometry x="395" y="470" width="37.5" height="20" as="geometry" />
        </mxCell>
        <mxCell id="z8Pj-q4XJrA8Nr9fmpkC-38" value="House" style="html=1;whiteSpace=wrap;" vertex="1" parent="WIyWlLk6GJQsqaUBKTNV-1">
          <mxGeometry x="450" y="470" width="57.5" height="20" as="geometry" />
        </mxCell>
        <mxCell id="z8Pj-q4XJrA8Nr9fmpkC-39" value="Crop" style="html=1;whiteSpace=wrap;" vertex="1" parent="WIyWlLk6GJQsqaUBKTNV-1">
          <mxGeometry x="432.5" y="500" width="37.5" height="20" as="geometry" />
        </mxCell>
      </root>
    </mxGraphModel>
  </diagram>
</mxfile>
